<svg xmlns:inkscape="http://www.inkscape.org/namespaces/inkscape" xmlns:sodipodi="http://sodipodi.sourceforge.net/DTD/sodipodi-0.dtd" xmlns="http://www.w3.org/2000/svg" xmlns:svg="http://www.w3.org/2000/svg" xmlns:rdf="http://www.w3.org/1999/02/22-rdf-syntax-ns#" xmlns:cc="http://creativecommons.org/ns#" xmlns:dc="http://purl.org/dc/elements/1.1/" viewBox="0 0 8.995833 11.244792375" version="1.1" x="0px" y="0px"><g><path style="color:#000000;paint-order:fill markers stroke;" d="M 2.7739532,1.6666667e-7 A 0.2646291,0.2646291 0 0 0 2.5103562,0.26359417 a 0.2646291,0.2646291 0 0 0 0.263597,0.265664 h 3.447927 A 0.2646291,0.2646291 0 0 0 6.4854772,0.26359417 0.2646291,0.2646291 0 0 0 6.2218802,1.6666667e-7 Z M 0.54321317,1.1799752 a 0.2646291,0.2646291 0 0 0 -0.265664,0.263595 0.2646291,0.2646291 0 0 0 0.265664,0.265663 H 1.2270092 v 6.05597 c 0,0.67827 0.554429,1.23063 1.232697,1.23063 h 4.07694 c 0.678265,0 1.232178,-0.55236 1.232178,-1.23063 v -6.05597 h 0.683796 a 0.2646291,0.2646291 0 0 0 0.265664,-0.265663 0.2646291,0.2646291 0 0 0 -0.265664,-0.263595 z m 1.21305403,0.529258 h 5.483299 v 6.05597 c 0,0.394215 -0.308708,0.702923 -0.70292,0.702923 h -4.07694 c -0.394215,0 -0.703439,-0.308708 -0.703439,-0.702923 z m 1.277663,0.931886 a 0.2646291,0.2646291 0 0 0 -0.265664,0.263597 v 4.100197 a 0.2646291,0.2646291 0 0 0 0.265664,0.265661 0.2646291,0.2646291 0 0 0 0.263594,-0.265661 v -4.100197 a 0.2646291,0.2646291 0 0 0 -0.263594,-0.263597 z m 1.463213,0 a 0.2646291,0.2646291 0 0 0 -0.264113,0.263597 v 4.100197 a 0.2646291,0.2646291 0 0 0 0.264113,0.265661 0.2646291,0.2646291 0 0 0 0.265661,-0.265661 v -4.100197 a 0.2646291,0.2646291 0 0 0 -0.265661,-0.263597 z m 1.464761,0 a 0.2646291,0.2646291 0 0 0 -0.263595,0.263597 v 4.100197 a 0.2646291,0.2646291 0 0 0 0.263595,0.265661 0.2646291,0.2646291 0 0 0 0.265663,-0.265661 v -4.100197 a 0.2646291,0.2646291 0 0 0 -0.265663,-0.263597 z" fill="#000000" fill-rule="evenodd" stroke-width="1.00017" stroke-linecap="round" stroke-linejoin="round"/></g><text x="0" y="23.9958339" fill="#000000" font-size="5px" font-weight="bold" font-family="'Helvetica Neue', Helvetica, Arial-Unicode, Arial, Sans-serif">Created by Alzam</text><text x="0" y="28.9958339" fill="#000000" font-size="5px" font-weight="bold" font-family="'Helvetica Neue', Helvetica, Arial-Unicode, Arial, Sans-serif">from the Noun Project</text></svg>